STARTFONT 2.1
FONT -Monotype-Times New Roman-Bold-I-Normal--33-240-100-100-P-172-iso8859-7
SIZE 24 100 100
FONTBOUNDINGBOX 41 37 -5 -8

STARTPROPERTIES 24
FOUNDRY "Monotype"
FAMILY_NAME "Times New Roman"
WEIGHT_NAME "Bold"
SLANT "I"
SETWIDTH_NAME "Normal"
ADD_STYLE_NAME ""
PIXEL_SIZE 33
POINT_SIZE 240
RESOLUTION_X 100
RESOLUTION_Y 100
SPACING "P"
AVERAGE_WIDTH 172
CHARSET_REGISTRY "iso8859"
CHARSET_ENCODING "7"
FACE_NAME "Times New Roman Bold Inclined ISO Latin Greek"
_DEC_DEVICE_FONTNAMES "PS=timesnewroman-bin-latgreek"
COPYRIGHT "Copyright (c) 1993 Monotype Typography Ltd."
CAP_HEIGHT 25
X_HEIGHT 16
WEIGHT 10
QUAD_WIDTH 20
DEFAULT_CHAR 160
FONT_DESCENT 8
FONT_ASCENT 29
ENDPROPERTIES

CHARS 185

STARTCHAR space
ENCODING 32
SWIDTH 250 0
DWIDTH 8 0
BBX 0 0 0 0
BITMAP
ENDCHAR

STARTCHAR exclam
ENCODING 33
SWIDTH 271 0
DWIDTH 9 0
BBX 10 24 0 0
BITMAP
0080
03C0
03C0
07C0
07C0
0780
0780
0700
0700
0600
0E00
0C00
0C00
0C00
0800
0800
1000
0000
0000
7000
F800
F800
F800
7000
ENDCHAR

STARTCHAR quotedbl
ENCODING 34
SWIDTH 552 0
DWIDTH 18 0
BBX 13 10 5 12
BITMAP
7070
F8F8
F8F8
F8F8
70F0
7070
7070
7070
2020
2020
ENDCHAR

STARTCHAR numbersign
ENCODING 35
SWIDTH 667 0
DWIDTH 22 0
BBX 19 23 2 -3
BITMAP
0381C0
038380
070380
070380
070380
070300
FFFFE0
FFFFE0
FFFFE0
0E0700
0E0F00
1E0E00
1C0E00
1C0E00
FFFFE0
FFFFE0
FFFFE0
381C00
381C00
381C00
383800
703800
703800
ENDCHAR

STARTCHAR dollar
ENCODING 36
SWIDTH 500 0
DWIDTH 17 0
BBX 15 26 1 -2
BITMAP
0030
03F8
072E
0E26
1C66
1C44
1C44
1E40
1FC0
1F80
0FC0
07C0
03E0
01F0
01F8
0378
027C
023C
423C
443C
C438
E478
FCE0
3FC0
0800
1800
ENDCHAR

STARTCHAR percent
ENCODING 37
SWIDTH 875 0
DWIDTH 29 0
BBX 26 23 2 0
BITMAP
030001C0
0C800380
18C00700
38C00E00
30C01C00
31C03800
71807000
6180E000
6301C000
63038000
26070000
180C0600
00181900
00303180
00607180
00C06180
01806380
0300E300
0600C300
0C00C600
1800C600
30004C00
E0003000
ENDCHAR

STARTCHAR ampersand
ENCODING 38
SWIDTH 719 0
DWIDTH 24 0
BBX 23 23 1 0
BITMAP
000FC0
0019E0
0030E0
0070E0
0070E0
00F1E0
00F1C0
00F380
00FA00
00F800
00F800
03F8FE
0E7C70
1C7C60
387E60
783EC0
F83F80
F83F00
FC1F80
FC0FC0
7F3BFE
7FE3F8
1F00E0
ENDCHAR

STARTCHAR quoteright
ENCODING 39
SWIDTH 271 0
DWIDTH 9 0
BBX 7 10 3 13
BITMAP
1C
3E
3E
3E
1E
0C
0C
18
30
C0
ENDCHAR

STARTCHAR parenleft
ENCODING 40
SWIDTH 500 0
DWIDTH 17 0
BBX 13 29 3 -6
BITMAP
0018
0060
00C0
0180
0380
0700
0E00
1E00
3C00
3C00
7C00
7800
7800
F800
F000
F000
F000
F000
E000
E000
E000
6000
6000
6000
2000
3000
1000
1000
0800
ENDCHAR

STARTCHAR parenright
ENCODING 41
SWIDTH 500 0
DWIDTH 17 0
BBX 13 29 0 -6
BITMAP
0040
0040
0040
0020
0020
0030
0030
0038
0038
0038
0038
0078
0078
0078
0078
00F8
00F0
00F0
01F0
01E0
01E0
03C0
0380
0700
0E00
1C00
1800
2000
C000
ENDCHAR

STARTCHAR asterisk
ENCODING 42
SWIDTH 500 0
DWIDTH 17 0
BBX 13 13 5 11
BITMAP
0200
0700
0700
0700
E238
F278
FEF8
0200
0500
1DC0
3CE0
38E0
1840
ENDCHAR

STARTCHAR plus
ENCODING 43
SWIDTH 667 0
DWIDTH 22 0
BBX 17 18 3 0
BITMAP
01C000
01C000
01C000
01C000
01C000
01C000
01C000
FFFF80
FFFF80
FFFF80
01C000
01C000
01C000
01C000
01C000
01C000
01C000
01C000
ENDCHAR

STARTCHAR comma
ENCODING 44
SWIDTH 271 0
DWIDTH 9 0
BBX 7 10 0 -6
BITMAP
1C
3E
3E
3E
1E
0E
0C
18
30
C0
ENDCHAR

STARTCHAR minus
ENCODING 45
SWIDTH 667 0
DWIDTH 22 0
BBX 18 3 2 7
BITMAP
FFFFC0
FFFFC0
FFFFC0
ENDCHAR

STARTCHAR period
ENCODING 46
SWIDTH 271 0
DWIDTH 9 0
BBX 5 5 2 0
BITMAP
70
F8
F8
F8
70
ENDCHAR

STARTCHAR slash
ENCODING 47
SWIDTH 281 0
DWIDTH 9 0
BBX 10 23 0 0
BITMAP
03C0
0380
0780
0780
0780
0700
0F00
0F00
0F00
0F00
0E00
1E00
1E00
1E00
1C00
3C00
3C00
3C00
3800
7800
7800
7800
F000
ENDCHAR

STARTCHAR zero
ENCODING 48
SWIDTH 500 0
DWIDTH 17 0
BBX 15 23 1 0
BITMAP
00F0
039C
070C
0E0E
1E0E
1E0E
3C0E
3C1E
7C1E
781E
783E
783E
F83C
F03C
F07C
F078
E078
E0F0
E0F0
E0E0
61C0
3380
1E00
ENDCHAR

STARTCHAR one
ENCODING 49
SWIDTH 500 0
DWIDTH 17 0
BBX 14 23 1 0
BITMAP
000C
01F8
0FF8
00F8
00F0
00F0
00F0
01F0
01E0
01E0
03E0
03C0
03C0
03C0
0780
0780
0780
0F80
0F00
0F00
1F00
1F00
FFE0
ENDCHAR

STARTCHAR two
ENCODING 50
SWIDTH 500 0
DWIDTH 17 0
BBX 15 23 1 0
BITMAP
03F0
07F8
0FFC
0C7E
103E
001E
001E
001E
001C
001C
0038
0038
0070
00E0
01C0
0380
0300
060C
0838
1FF8
3FF0
7FF0
FFE0
ENDCHAR

STARTCHAR three
ENCODING 51
SWIDTH 500 0
DWIDTH 17 0
BBX 15 23 0 0
BITMAP
00F8
03FC
023E
041E
001E
001E
003C
0038
00D0
03E0
1FF0
03F8
00F8
00F8
0078
0078
0078
0070
0070
6060
F0E0
F980
7E00
ENDCHAR

STARTCHAR four
ENCODING 52
SWIDTH 500 0
DWIDTH 17 0
BBX 16 23 1 0
BITMAP
0007
000E
001E
003E
007C
00FC
01BC
0178
0278
0478
08F0
18F0
30F0
61F0
41E0
FFFC
FFFC
FFF8
03C0
03C0
0780
0780
0780
ENDCHAR

STARTCHAR five
ENCODING 53
SWIDTH 500 0
DWIDTH 17 0
BBX 16 23 1 0
BITMAP
01FF
03FE
03FE
07FE
0400
0C00
0F80
1FC0
1FE0
07F0
01F8
00F8
0078
0078
0038
0038
0038
0030
0070
6060
F0C0
FF00
3C00
ENDCHAR

STARTCHAR six
ENCODING 54
SWIDTH 500 0
DWIDTH 17 0
BBX 16 23 1 0
BITMAP
0003
003C
00F0
01E0
0780
0F80
1F00
1E00
3C00
7FF0
7C78
7838
F83C
F83C
F03C
F03C
F03C
E078
E078
60F0
60E0
31C0
0F00
ENDCHAR

STARTCHAR seven
ENCODING 55
SWIDTH 500 0
DWIDTH 17 0
BBX 15 23 3 0
BITMAP
3FFE
3FFC
7FFC
7FF8
C018
8030
0060
0060
00C0
0080
0180
0300
0300
0600
0C00
0C00
1800
1800
3000
6000
6000
C000
4000
ENDCHAR

STARTCHAR eight
ENCODING 56
SWIDTH 500 0
DWIDTH 17 0
BBX 16 23 0 0
BITMAP
00F8
038C
070E
0F0F
0F0F
0F0F
0F0E
0F8E
07DC
07F0
03E0
07F0
1DF8
38F8
787C
707C
F03C
F03C
F03C
7078
7070
38E0
0F80
ENDCHAR

STARTCHAR nine
ENCODING 57
SWIDTH 500 0
DWIDTH 17 0
BBX 16 23 1 0
BITMAP
01F0
079C
0F0E
0F0E
1E0F
1E0F
3E0F
3E0F
3C1F
3C1F
3C1E
3C3E
1E3E
0FFC
037C
00F8
00F0
01F0
03E0
0780
0F00
3C00
C000
ENDCHAR

STARTCHAR colon
ENCODING 58
SWIDTH 333 0
DWIDTH 11 0
BBX 8 15 2 0
BITMAP
0E
1F
1F
1F
0E
00
00
00
00
00
70
F8
F8
F8
70
ENDCHAR

STARTCHAR semicolon
ENCODING 59
SWIDTH 333 0
DWIDTH 11 0
BBX 10 21 0 -6
BITMAP
0380
07C0
07C0
07C0
0380
0000
0000
0000
0000
0000
0000
1C00
3E00
3E00
3E00
1E00
0E00
0C00
1800
3000
C000
ENDCHAR

STARTCHAR less
ENCODING 60
SWIDTH 667 0
DWIDTH 22 0
BBX 18 18 2 0
BITMAP
000040
0001C0
000FC0
003FC0
00FF00
07FC00
1FE000
FF8000
F80000
FC0000
FF8000
1FE000
07FC00
00FF00
003FC0
000FC0
0001C0
000040
ENDCHAR

STARTCHAR equal
ENCODING 61
SWIDTH 667 0
DWIDTH 22 0
BBX 18 11 2 3
BITMAP
FFFFC0
FFFFC0
FFFFC0
000000
000000
000000
000000
000000
FFFFC0
FFFFC0
FFFFC0
ENDCHAR

STARTCHAR greater
ENCODING 62
SWIDTH 667 0
DWIDTH 22 0
BBX 18 18 2 0
BITMAP
C00000
F00000
FC0000
FF8000
3FE000
07FC00
00FF00
003FC0
0003C0
000FC0
003FC0
01FF00
07FC00
3FE000
FF8000
FC0000
F00000
C00000
ENDCHAR

STARTCHAR question
ENCODING 63
SWIDTH 385 0
DWIDTH 13 0
BBX 12 24 2 0
BITMAP
0780
19C0
38E0
3CF0
3CF0
3CF0
19F0
01E0
03E0
03C0
0780
0E00
1C00
1800
3000
2000
2000
0000
0000
7000
F800
F800
F800
7000
ENDCHAR

STARTCHAR at
ENCODING 64
SWIDTH 927 0
DWIDTH 31 0
BBX 29 31 1 -8
BITMAP
000FF000
00780E00
01C00300
03000080
06000040
0C000060
18000020
38079C30
300E5C10
601C5C10
603C7810
60787810
C0787810
C0F07810
C0F0F010
C1F0F020
C1E1F020
C1E1E060
C1E2E040
41E5E080
41FDE188
61F9E608
20F0FC10
30000010
10000020
18000060
0C0000C0
06000180
01800600
00E03800
001FE000
ENDCHAR

STARTCHAR A
ENCODING 65
SWIDTH 719 0
DWIDTH 24 0
BBX 21 23 0 0
BITMAP
000010
000010
000030
000070
0000F0
0001F0
0003F0
0003F0
0006F0
000DF0
0019F0
0031F0
0021F0
0061F0
00C1E0
01FFE0
0301E0
0601E0
0401E0
0C03E0
1803E0
3803E0
FE0FF8
ENDCHAR

STARTCHAR B
ENCODING 66
SWIDTH 667 0
DWIDTH 22 0
BBX 22 23 1 0
BITMAP
07FFE0
00F8F8
00F87C
00F87C
01F07C
01F07C
01F07C
01E0F8
03E1F0
03E3C0
03FE00
07FF80
07C3C0
07C1E0
0781F0
0F81F0
0F81F0
0F81F0
1F03F0
1F03E0
1F07C0
3E1F80
FFFE00
ENDCHAR

STARTCHAR C
ENCODING 67
SWIDTH 719 0
DWIDTH 24 0
BBX 24 23 3 0
BITMAP
001FF1
00FC3E
01F01E
07C00E
0F8006
1F0004
3F0004
3E0000
7E0000
7C0000
FC0000
FC0000
F80000
F80000
F80000
F80000
F80000
7C0010
7C0020
3E0040
1F8180
0FFF00
01F800
ENDCHAR

STARTCHAR D
ENCODING 68
SWIDTH 771 0
DWIDTH 25 0
BBX 24 23 1 0
BITMAP
07FF80
00FBF0
00F8F8
01F07C
01F03E
01F03E
01F01F
03E01F
03E01F
03E01F
07C01F
07C01F
07C03F
07C03F
0F803E
0F807E
0F807C
1F00F8
1F00F8
1F01F0
1F03C0
3F1F80
FFFC00
ENDCHAR

STARTCHAR E
ENCODING 69
SWIDTH 667 0
DWIDTH 22 0
BBX 22 23 1 0
BITMAP
07FFFC
01F87C
01F01C
01F00C
01F008
03E000
03E000
03E040
03C080
07C380
07FF80
07C380
078100
0F8100
0F8100
0F8000
1F0000
1F0010
1F0060
1F00E0
3E03C0
3F0FC0
FFFFC0
ENDCHAR

STARTCHAR F
ENCODING 70
SWIDTH 604 0
DWIDTH 20 0
BBX 21 23 1 0
BITMAP
07FFF8
01F0F8
01F038
01F010
01F010
03E000
03E000
03E180
03C300
07C700
07FE00
07CE00
0F8600
0F8200
0F8200
0F0000
1F0000
1F0000
1F0000
3E0000
3E0000
7E0000
FFC000
ENDCHAR

STARTCHAR G
ENCODING 71
SWIDTH 719 0
DWIDTH 24 0
BBX 23 23 1 0
BITMAP
001FF2
00FC3E
03F00E
07C00E
0F8006
1F0004
3F0004
3E0000
7E0000
7C0000
FC0000
FC0000
F807FC
F801F0
F801F0
F801F0
F803E0
7803E0
7C03E0
3C07C0
1E07C0
0F87C0
01FE00
ENDCHAR

STARTCHAR H
ENCODING 72
SWIDTH 823 0
DWIDTH 27 0
BBX 29 23 1 0
BITMAP
07FF3FF8
01F807C0
01F007C0
01F007C0
01F00F80
01E00F80
03E00F80
03E01F00
03E01F00
07C01F00
07FFFF00
07C03E00
07803E00
0F803E00
0F807C00
0F807C00
1F007C00
1F007C00
1F00F800
1F00F800
3E00F800
3F01F800
FFCFFE00
ENDCHAR

STARTCHAR I
ENCODING 73
SWIDTH 385 0
DWIDTH 13 0
BBX 16 23 0 0
BITMAP
07FF
00FC
00F8
00F8
01F0
01F0
01F0
03E0
03E0
03E0
03E0
07C0
07C0
07C0
0780
0F80
0F80
0F80
1F00
1F00
1F00
3F00
FFE0
ENDCHAR

STARTCHAR J
ENCODING 74
SWIDTH 500 0
DWIDTH 17 0
BBX 18 23 1 0
BITMAP
00FFC0
003F00
001F00
003E00
003E00
003E00
003C00
007C00
007C00
007C00
00F800
00F800
00F800
00F000
01F000
01F000
01F000
73E000
F3E000
F3C000
E78000
E70000
3E0000
ENDCHAR

STARTCHAR K
ENCODING 75
SWIDTH 719 0
DWIDTH 24 0
BBX 26 23 0 0
BITMAP
03FF3FC0
00FC0F00
00FC1C00
00F81800
00F83000
00F86000
01F18000
01F30000
01F60000
01EF0000
03FF0000
03EF0000
03EF8000
07CF8000
07C78000
07C7C000
0787C000
0F83E000
0F83E000
0F83E000
1F03F000
1F83F000
FFE7FC00
ENDCHAR

STARTCHAR L
ENCODING 76
SWIDTH 667 0
DWIDTH 22 0
BBX 20 23 1 0
BITMAP
07FF00
01F800
00F800
01F000
01F000
01F000
03E000
03E000
03E000
03E000
07C000
07C000
07C000
0F8000
0F8000
0F8000
0F8000
1F0010
1F0020
1F0060
3F01E0
3F0FC0
FFFFC0
ENDCHAR

STARTCHAR M
ENCODING 77
SWIDTH 990 0
DWIDTH 33 0
BBX 35 23 0 0
BITMAP
03FC000FE0
00FC001F80
007C003F00
00FC003F00
00BC005F00
00BE00FE00
01BE01BE00
013E013E00
013E023E00
013E067C00
031E0C7C00
021E087C00
021F18F800
061F30F800
041F20F800
041F40F800
040FC1F000
0C0F81F000
080F01F000
080E03E000
180E03E000
3C0C07E000
FE081FFC00
ENDCHAR

STARTCHAR N
ENCODING 78
SWIDTH 771 0
DWIDTH 25 0
BBX 29 23 0 0
BITMAP
03F803F8
00FC00E0
00FC00C0
00FE0080
00BE0080
01BF0180
011F0100
011F8100
010F8100
030FC300
0207C200
0207E200
0603E600
0403E400
0401F400
0401F400
0C00FC00
0800F800
08007800
18007800
18003000
38003000
FE001000
ENDCHAR

STARTCHAR O
ENCODING 79
SWIDTH 771 0
DWIDTH 25 0
BBX 23 23 3 0
BITMAP
001FC0
0070F0
01E078
03C03C
07803C
0F003E
1F003E
3E003E
3E003E
7E007E
7C007E
FC007E
FC007C
FC00FC
F800F8
F800F8
F801F0
F801E0
7803C0
7C0780
3C0F00
1E3C00
07F000
ENDCHAR

STARTCHAR P
ENCODING 80
SWIDTH 667 0
DWIDTH 22 0
BBX 22 23 0 0
BITMAP
07FFC0
00F9F0
00F8F8
00F07C
01F07C
01F07C
01F07C
03E0FC
03E0F8
03E1F0
03C7E0
07FF80
07C000
07C000
0F8000
0F8000
0F8000
0F0000
1F0000
1F0000
1F0000
3F0000
FFE000
ENDCHAR

STARTCHAR Q
ENCODING 81
SWIDTH 771 0
DWIDTH 25 0
BBX 23 30 3 -7
BITMAP
001FC0
0078F0
01E078
03C03C
07803C
0F003E
1F003E
3E003E
3E003E
7E007E
7C007E
FC007E
FC007C
FC00FC
F800F8
F800F8
F801F0
F801E0
7803C0
7C0780
3C0F00
1E3C00
07F000
030000
060000
0C0004
1FFC0C
3FFFF0
7FFFE0
007F00
ENDCHAR

STARTCHAR R
ENCODING 82
SWIDTH 719 0
DWIDTH 24 0
BBX 22 23 1 0
BITMAP
07FFE0
00F9F8
00F8F8
01F07C
01F07C
01F07C
03E07C
03E0FC
03E0F8
03E1F0
07C3E0
07FF00
07DF00
079F00
0F8F80
0F8F80
0F8F80
1F07C0
1F07C0
1F07C0
1F03E0
3F03E0
FFC1F8
ENDCHAR

STARTCHAR S
ENCODING 83
SWIDTH 604 0
DWIDTH 20 0
BBX 21 23 0 0
BITMAP
007F08
01F1F8
03E078
03C030
07C030
07C010
07C010
07E000
03F000
03F800
01FE00
00FF00
007F00
001F80
000FC0
200FC0
2007C0
6007C0
7007C0
700780
780F00
7E3E00
C7F800
ENDCHAR

STARTCHAR T
ENCODING 84
SWIDTH 667 0
DWIDTH 22 0
BBX 20 23 4 0
BITMAP
1FFFF0
3FFFF0
3C7C70
30F860
20F820
40F820
00F000
01F000
01F000
01F000
03E000
03E000
03E000
07C000
07C000
07C000
07C000
0F8000
0F8000
0F8000
1F0000
1F8000
FFF000
ENDCHAR

STARTCHAR U
ENCODING 85
SWIDTH 771 0
DWIDTH 25 0
BBX 24 23 4 0
BITMAP
3FF07F
0FC01C
0F801C
0F8018
1F0010
1F0010
1F0010
1E0030
3E0020
3E0020
3E0060
7C0040
7C0040
7C0040
7800C0
F80080
F80080
F80180
F80100
7C0200
7E0C00
1FF800
07C000
ENDCHAR

STARTCHAR V
ENCODING 86
SWIDTH 719 0
DWIDTH 24 0
BBX 20 23 6 0
BITMAP
FF83F0
3E00E0
3E00C0
3E0080
3E0100
3E0300
3C0600
3C0C00
7C1800
7C1000
7C2000
7C6000
7CC000
7D8000
7D0000
7E0000
7C0000
7C0000
780000
700000
600000
400000
400000
ENDCHAR

STARTCHAR W
ENCODING 87
SWIDTH 990 0
DWIDTH 33 0
BBX 31 23 5 0
BITMAP
FF9FF07E
7E07C018
3C07C030
3C07C020
3C07C060
3C07C0C0
7C0FC080
7C0FC180
7C17C300
7C37C600
7C67C400
7C478C00
7C879800
7D879000
7F07A000
7E07E000
7C07C000
7C0F8000
780F0000
700F0000
600E0000
600C0000
400C0000
ENDCHAR

STARTCHAR X
ENCODING 88
SWIDTH 719 0
DWIDTH 24 0
BBX 26 23 0 0
BITMAP
07FE1FC0
01F80780
00F80600
00F80C00
007C1800
007C3000
007C6000
003EC000
003F8000
003F0000
001F0000
001F0000
001F0000
003F8000
006F8000
00C7C000
0187C000
0307C000
0603E000
0C03E000
1C03E000
3C03F000
FF0FF800
ENDCHAR

STARTCHAR Y
ENCODING 89
SWIDTH 719 0
DWIDTH 24 0
BBX 21 23 5 0
BITMAP
FFE1F8
3F0070
1F0060
1F0040
1F00C0
0F0180
0F8300
0F8600
0F8400
07C800
07D800
07F000
03E000
03E000
07C000
07C000
07C000
0F8000
0F8000
0F8000
1F8000
1F8000
FFE000
ENDCHAR

STARTCHAR Z
ENCODING 90
SWIDTH 719 0
DWIDTH 24 0
BBX 25 23 1 0
BITMAP
01FFFF80
03E03F00
03007E00
0200FC00
0401F800
0003F800
0003F000
0007E000
000FC000
001F8000
003F0000
007E0000
00FE0000
00FC0000
01F80000
03F00000
07E00000
0FC00800
1FC01000
3F807000
3F00F000
7E07E000
FFFFE000
ENDCHAR

STARTCHAR bracketleft
ENCODING 91
SWIDTH 500 0
DWIDTH 17 0
BBX 16 29 2 -6
BITMAP
00FF
01F0
01E0
01E0
01E0
03E0
03C0
03C0
07C0
0780
0780
0780
0F80
0F00
0F00
0F00
1E00
1E00
1E00
3E00
3C00
3C00
3C00
7800
7800
7800
F800
F800
FF00
ENDCHAR

STARTCHAR backslash
ENCODING 92
SWIDTH 281 0
DWIDTH 9 0
BBX 9 23 1 0
BITMAP
E000
F000
F000
F000
7000
7800
7800
7800
7800
3C00
3C00
3C00
3C00
1C00
1E00
1E00
1E00
0E00
0F00
0F00
0F00
0700
0780
ENDCHAR

STARTCHAR bracketright
ENCODING 93
SWIDTH 500 0
DWIDTH 17 0
BBX 16 29 0 -6
BITMAP
00FF
001F
001E
001E
001E
003C
003C
003C
007C
0078
0078
0078
00F0
00F0
00F0
01F0
01E0
01E0
01E0
03C0
03C0
03C0
07C0
0780
0780
0780
0F00
1F00
FF00
ENDCHAR

STARTCHAR asciicircum
ENCODING 94
SWIDTH 573 0
DWIDTH 19 0
BBX 15 11 2 11
BITMAP
0380
0380
07C0
07C0
0EE0
0C60
1C70
3838
3838
701C
F01E
ENDCHAR

STARTCHAR underscore
ENCODING 95
SWIDTH 500 0
DWIDTH 17 0
BBX 17 2 0 -4
BITMAP
FFFF80
FFFF80
ENDCHAR

STARTCHAR quoteleft
ENCODING 96
SWIDTH 271 0
DWIDTH 9 0
BBX 7 10 4 13
BITMAP
06
18
30
60
E0
F0
F8
F8
F8
70
ENDCHAR

STARTCHAR a
ENCODING 97
SWIDTH 500 0
DWIDTH 17 0
BBX 16 15 1 0
BITMAP
01DF
072E
0E3E
1C3E
3C3C
3C3C
787C
7878
F078
F0F8
F170
F2F2
FEF6
7CFC
7870
ENDCHAR

STARTCHAR b
ENCODING 98
SWIDTH 500 0
DWIDTH 17 0
BBX 15 23 1 0
BITMAP
00E0
0FC0
07C0
03C0
07C0
0780
0780
0F80
0F78
0F7C
1F3E
1E1E
1E1E
1E1E
3C1E
3C3E
3C3C
783C
7878
7878
F0F0
F1C0
1F00
ENDCHAR

STARTCHAR c
ENCODING 99
SWIDTH 438 0
DWIDTH 14 0
BBX 13 15 2 0
BITMAP
00F0
0318
0E38
1C78
3878
7800
7800
F000
F000
F000
F000
F810
F860
7F80
3F00
ENDCHAR

STARTCHAR d
ENCODING 100
SWIDTH 500 0
DWIDTH 17 0
BBX 18 23 1 0
BITMAP
0001C0
000FC0
000780
000780
000780
000F80
000F00
000F00
01DF00
073E00
0E1E00
1C1E00
3C3C00
383C00
783C00
787800
F07800
F07800
F17000
F2F200
FEFE00
7CFC00
787000
ENDCHAR

STARTCHAR e
ENCODING 101
SWIDTH 438 0
DWIDTH 14 0
BBX 13 15 1 0
BITMAP
00F0
0338
0E38
1C38
3C78
3870
78E0
7780
F800
F000
F000
F030
F860
7F80
3F00
ENDCHAR

STARTCHAR f
ENCODING 102
SWIDTH 333 0
DWIDTH 11 0
BBX 22 30 -5 -7
BITMAP
000078
0001DC
00039C
00071C
000F00
001E00
001E00
003C00
00FF00
00BF00
007C00
007800
007800
007800
00F800
00F000
00F000
00F000
01F000
01E000
01E000
01E000
03C000
03C000
03C000
038000
078000
E70000
EE0000
F80000
ENDCHAR

STARTCHAR g
ENCODING 103
SWIDTH 500 0
DWIDTH 17 0
BBX 18 22 -1 -7
BITMAP
00F800
03CFC0
078FC0
0F8F00
0F0F00
0F0F00
0F1F00
0F1E00
053C00
03F000
0C0000
1C0000
1F8000
1FF000
07F800
1FFC00
707C00
E03C00
E01C00
E01800
703000
0FC000
ENDCHAR

STARTCHAR h
ENCODING 104
SWIDTH 500 0
DWIDTH 17 0
BBX 15 23 1 0
BITMAP
00E0
0FC0
03C0
07C0
0780
0780
0780
0F00
0F1C
0F3E
1F7E
1E9E
1F1E
3D3C
3E3C
3C3C
3C7C
7878
7878
78FA
F0FC
F0FC
F070
ENDCHAR

STARTCHAR i
ENCODING 105
SWIDTH 271 0
DWIDTH 9 0
BBX 10 23 0 0
BITMAP
0380
07C0
07C0
07C0
0380
0000
0000
0000
0700
7F00
1F00
1E00
1E00
1E00
3C00
3C00
3C00
7800
7800
7900
FA00
FC00
7800
ENDCHAR

STARTCHAR j
ENCODING 106
SWIDTH 271 0
DWIDTH 9 0
BBX 15 30 -5 -7
BITMAP
001C
003E
003E
003E
001C
0000
0000
0000
001C
01F8
0078
0078
0078
00F0
00F0
00F0
00F0
01E0
01E0
01E0
01E0
03C0
03C0
03C0
03C0
0780
0700
E700
EE00
F800
ENDCHAR

STARTCHAR k
ENCODING 107
SWIDTH 552 0
DWIDTH 18 0
BBX 18 23 0 0
BITMAP
00F000
07E000
03E000
03C000
03C000
03C000
07C000
078000
079FC0
0F8700
0F0400
0F0800
1F3000
1E7000
1EF000
3EF000
3EF800
3C7800
3C7800
787880
787F00
783E00
F01800
ENDCHAR

STARTCHAR l
ENCODING 108
SWIDTH 271 0
DWIDTH 9 0
BBX 10 23 1 0
BITMAP
01C0
0FC0
0780
0780
0780
0F80
0F00
0F00
1F00
1E00
1E00
1E00
3C00
3C00
3C00
7800
7800
7800
F000
F200
F400
FC00
F000
ENDCHAR

STARTCHAR m
ENCODING 109
SWIDTH 771 0
DWIDTH 25 0
BBX 25 15 0 0
BITMAP
038E0700
3F1F0F80
0F3F3F80
1F4F6780
1E8F4F80
1F1E8F80
1E1F0F00
3E1E1F00
3C3E1F00
3C3C1E00
783C3E00
787C3E80
78783D00
F0783E00
F0F83C00
ENDCHAR

STARTCHAR n
ENCODING 110
SWIDTH 500 0
DWIDTH 17 0
BBX 15 15 1 0
BITMAP
070C
3F3E
1F7E
1E9E
1F1E
1E3C
3E3C
3C3C
3C7C
7878
7878
78FA
F0F4
F0FC
F070
ENDCHAR

STARTCHAR o
ENCODING 111
SWIDTH 500 0
DWIDTH 17 0
BBX 15 15 1 0
BITMAP
01F8
071C
0E1E
1E1E
3C1E
7C1E
783E
783C
F83C
F078
F078
F070
F0E0
71C0
1E00
ENDCHAR

STARTCHAR p
ENCODING 112
SWIDTH 500 0
DWIDTH 17 0
BBX 19 21 -3 -6
BITMAP
03FBC0
01FFE0
00F3E0
01F1E0
01E1E0
01E1E0
01E1E0
03C1C0
03C3C0
03C380
078780
078700
078E00
0F9C00
0F7000
0F0000
1F0000
1E0000
1E0000
3E0000
FF8000
ENDCHAR

STARTCHAR q
ENCODING 113
SWIDTH 500 0
DWIDTH 17 0
BBX 15 22 1 -7
BITMAP
01DE
072E
0E3E
1C3C
3C3C
383C
7878
7878
F0F8
F0F0
F170
F2F0
FDE0
FDE0
71E0
03E0
03C0
03C0
07C0
07C0
0FC0
1FF0
ENDCHAR

STARTCHAR r
ENCODING 114
SWIDTH 385 0
DWIDTH 13 0
BBX 12 15 1 0
BITMAP
0C60
7CF0
3DF0
39E0
3A60
3A00
7A00
7C00
7400
7800
7800
F000
F000
F000
F000
ENDCHAR

STARTCHAR s
ENCODING 115
SWIDTH 385 0
DWIDTH 13 0
BBX 12 15 0 0
BITMAP
0790
0C70
1C30
1E20
1E20
1F00
0F80
0F80
07C0
03C0
43C0
41C0
61C0
7380
9E00
ENDCHAR

STARTCHAR t
ENCODING 116
SWIDTH 333 0
DWIDTH 11 0
BBX 10 19 2 0
BITMAP
0100
0300
0700
1E00
7FC0
DF80
3E00
3C00
3C00
3C00
7C00
7800
7800
7800
F800
F200
F400
FC00
7000
ENDCHAR

STARTCHAR u
ENCODING 117
SWIDTH 500 0
DWIDTH 17 0
BBX 15 15 1 0
BITMAP
071E
7E1E
1E1E
3E3C
3C3C
3C3C
3C78
7878
7878
7970
F170
F2F6
FDF4
F8F8
70E0
ENDCHAR

STARTCHAR v
ENCODING 118
SWIDTH 438 0
DWIDTH 14 0
BBX 12 15 2 0
BITMAP
1860
BCF0
3CF0
3C70
3C30
3C20
3C60
3C40
3C80
3D80
3F00
3E00
3C00
3000
2000
ENDCHAR

STARTCHAR w
ENCODING 119
SWIDTH 667 0
DWIDTH 22 0
BBX 19 15 2 0
BITMAP
1810C0
F831E0
7831E0
7870E0
78F860
3CB840
3D7840
3E7880
3E7900
3C7900
387A00
307C00
307800
207000
202000
ENDCHAR

STARTCHAR x
ENCODING 120
SWIDTH 552 0
DWIDTH 18 0
BBX 17 15 1 0
BITMAP
030700
1F8F80
079F00
079200
03E000
03C000
03C000
03C000
01E000
03E000
02E000
45E200
FCF200
F8FC00
607800
ENDCHAR

STARTCHAR y
ENCODING 121
SWIDTH 500 0
DWIDTH 17 0
BBX 18 22 -2 -7
BITMAP
01C180
0FC3C0
03C3C0
01C1C0
01E0C0
01E080
01E080
01E100
01E300
01E200
01E400
01E800
01E800
01F000
01E000
01E000
01C000
018000
710000
FE0000
FC0000
780000
ENDCHAR

STARTCHAR z
ENCODING 122
SWIDTH 438 0
DWIDTH 14 0
BBX 14 18 0 -3
BITMAP
1FFC
1FF8
1FF0
1820
2040
0080
0100
0300
0600
0400
0800
1C00
3E30
7E78
FE78
0F70
0770
01C0
ENDCHAR

STARTCHAR braceleft
ENCODING 123
SWIDTH 396 0
DWIDTH 13 0
BBX 8 29 4 -6
BITMAP
07
0C
1C
38
38
3C
3C
3C
1C
1C
1C
1C
38
60
80
70
38
1C
1C
1C
3C
3C
3C
3C
38
38
1C
0E
03
ENDCHAR

STARTCHAR bar
ENCODING 124
SWIDTH 219 0
DWIDTH 7 0
BBX 3 28 3 -5
BITMAP
E0
E0
E0
E0
E0
E0
E0
E0
E0
E0
E0
E0
E0
E0
E0
E0
E0
E0
E0
E0
E0
E0
E0
E0
E0
E0
E0
E0
ENDCHAR

STARTCHAR braceright
ENCODING 125
SWIDTH 396 0
DWIDTH 13 0
BBX 8 29 3 -6
BITMAP
E0
30
38
1C
1C
3C
3C
3C
3C
38
38
18
1C
06
03
0E
1C
38
38
38
38
3C
3C
1C
1C
1C
38
70
C0
ENDCHAR

STARTCHAR asciitilde
ENCODING 126
SWIDTH 573 0
DWIDTH 19 0
BBX 18 6 1 6
BITMAP
3E0040
7FC0C0
7FF180
C3FF80
80FF00
801E00
ENDCHAR

STARTCHAR space
ENCODING 160
SWIDTH 250 0
DWIDTH 9 0
BBX 0 0 0 0
BITMAP
ENDCHAR

STARTCHAR quoteleft
ENCODING 161
SWIDTH 271 0
DWIDTH 9 0
BBX 7 10 4 13
BITMAP
06
18
30
60
E0
F0
F8
F8
F8
70
ENDCHAR

STARTCHAR quoteright
ENCODING 162
SWIDTH 271 0
DWIDTH 9 0
BBX 7 10 3 13
BITMAP
1C
3E
3E
3E
1E
0C
0C
18
30
C0
ENDCHAR

STARTCHAR sterling
ENCODING 163
SWIDTH 500 0
DWIDTH 17 0
BBX 16 23 1 0
BITMAP
003E
00E7
01CF
01CE
03C0
07C0
0780
0780
0780
0F00
7FF0
7FF0
0F00
0E00
0E00
0E00
0C00
0C00
7F00
FFC4
9FF8
97F8
63E0
ENDCHAR

STARTCHAR brokenbar
ENCODING 166
SWIDTH 220 0
DWIDTH 7 0
BBX 2 29 3 -7
BITMAP
C0
C0
C0
C0
C0
C0
C0
C0
C0
00
00
00
00
00
00
00
00
00
00
C0
C0
C0
C0
C0
C0
C0
C0
C0
C0
ENDCHAR

STARTCHAR section
ENCODING 167
SWIDTH 604 0
DWIDTH 20 0
BBX 17 30 3 -7
BITMAP
00FC00
01C700
038380
070380
070380
078380
078100
07C000
03E000
05F000
0CF800
187C00
383E00
381E00
380E00
3C0E00
3C0E00
3E0600
1F0C00
0FC800
0FD800
03E000
01F000
40F000
E07000
E07000
E07000
E0E000
71C000
1F0000
ENDCHAR

STARTCHAR dieresis
ENCODING 168
SWIDTH 333 0
DWIDTH 11 0
BBX 10 4 4 18
BITMAP
F3C0
F3C0
F3C0
F3C0
ENDCHAR

STARTCHAR copyright
ENCODING 169
SWIDTH 750 0
DWIDTH 25 0
BBX 23 23 1 0
BITMAP
01FF00
0783C0
0C0060
180030
307E98
61C18C
438084
C70086
C70006
8F0002
8F0002
8F0002
8F0002
C70006
C78006
438084
61C30C
20FC08
300018
180030
0E00E0
038780
00FE00
ENDCHAR

STARTCHAR guillemotleft
ENCODING 171
SWIDTH 500 0
DWIDTH 17 0
BBX 15 15 1 1
BITMAP
0306
020C
0618
0C38
1870
3870
70E0
F1E0
F1E0
70E0
70E0
3060
3060
1830
1830
ENDCHAR

STARTCHAR logicalnot
ENCODING 172
SWIDTH 667 0
DWIDTH 22 0
BBX 18 11 2 3
BITMAP
FFFFC0
FFFFC0
FFFFC0
0001C0
0001C0
0001C0
0001C0
0001C0
0001C0
0001C0
0001C0
ENDCHAR

STARTCHAR hyphen
ENCODING 173
SWIDTH 333 0
DWIDTH 11 0
BBX 9 3 1 6
BITMAP
FF80
FF80
FF80
ENDCHAR

STARTCHAR endash
ENCODING 175
SWIDTH 500 0
DWIDTH 17 0
BBX 17 2 0 7
BITMAP
FFFF80
FFFF80
ENDCHAR

STARTCHAR degree
ENCODING 176
SWIDTH 396 0
DWIDTH 13 0
BBX 11 11 4 11
BITMAP
1F00
3F80
71C0
E0E0
C060
C060
C060
E0E0
71C0
3F80
1F00
ENDCHAR

STARTCHAR plusminus
ENCODING 177
SWIDTH 667 0
DWIDTH 22 0
BBX 17 23 3 0
BITMAP
01C000
01C000
01C000
01C000
01C000
01C000
01C000
FFFF80
FFFF80
FFFF80
01C000
01C000
01C000
01C000
01C000
01C000
01C000
000000
000000
000000
FFFF80
FFFF80
FFFF80
ENDCHAR

STARTCHAR twosuperior
ENCODING 178
SWIDTH 292 0
DWIDTH 10 0
BBX 9 12 2 11
BITMAP
1E00
3F00
6380
0380
0380
0300
0600
0C00
1800
3300
7E00
FE00
ENDCHAR

STARTCHAR threesuperior
ENCODING 179
SWIDTH 292 0
DWIDTH 10 0
BBX 9 12 2 11
BITMAP
0F00
1380
0380
0300
0C00
3E00
0F00
0700
0700
0600
E400
F800
ENDCHAR

STARTCHAR acute
ENCODING 180
SWIDTH 333 0
DWIDTH 11 0
BBX 7 5 7 17
BITMAP
7E
78
70
E0
C0
ENDCHAR

STARTCHAR dieresisacute
ENCODING 181
SWIDTH 333 0
DWIDTH 11 0
BBX 10 6 3 17
BITMAP
0F00
0E00
0C00
EDC0
EDC0
E9C0
ENDCHAR

STARTCHAR afii9936
ENCODING 182
SWIDTH 708 0
DWIDTH 23 0
BBX 21 23 0 0
BITMAP
007C10
007830
00F070
00E0F0
00C0F0
0181F0
0003F0
0006F0
000DF0
0019F0
0011F0
0021E0
0041E0
00C1E0
01FFE0
0103E0
0203E0
0603E0
0C03E0
1803E0
1803E0
3803E0
FC0FF8
ENDCHAR

STARTCHAR periodcentered
ENCODING 183
SWIDTH 271 0
DWIDTH 9 0
BBX 5 5 3 9
BITMAP
70
F8
F8
F8
70
ENDCHAR

STARTCHAR afii9937
ENCODING 184
SWIDTH 714 0
DWIDTH 24 0
BBX 25 23 0 0
BITMAP
7DFFFF80
783E0F80
703E0300
E03E0100
C07C0100
007C0000
007C0000
00F81000
00F83000
00F87000
00FFE000
01F0E000
01F06000
01F02000
01E02000
03E00000
03E00000
03E00400
07C00C00
07C03800
07C07800
0FE3F800
3FFFF000
ENDCHAR

STARTCHAR afii9938
ENCODING 185
SWIDTH 871 0
DWIDTH 29 0
BBX 31 23 0 0
BITMAP
7CFFE7FE
783F01F8
703E01F8
603E01F0
C03C01F0
807C01F0
007C03E0
007C03E0
00F803E0
00F803C0
00F807C0
01FFFFC0
01F007C0
01F00F80
01F00F80
03E00F80
03E00F00
03E01F00
07C01F00
07C01F00
07C03E00
0FC03F00
3FF1FFC0
ENDCHAR

STARTCHAR afii9939
ENCODING 186
SWIDTH 457 0
DWIDTH 15 0
BBX 18 23 0 0
BITMAP
7CFFC0
783F00
703E00
603E00
C03E00
807C00
007C00
007C00
007C00
00F800
00F800
00F800
01F000
01F000
01F000
01F000
03E000
03E000
03E000
07C000
07C000
0FC000
1FF800
ENDCHAR

STARTCHAR guillemotright
ENCODING 187
SWIDTH 500 0
DWIDTH 17 0
BBX 15 15 2 1
BITMAP
1020
1820
1830
1C38
1C38
0E3C
0E1C
0F1E
1E3C
1C38
3870
30E0
60C0
4180
8100
ENDCHAR

STARTCHAR afii9940
ENCODING 188
SWIDTH 781 0
DWIDTH 26 0
BBX 25 23 1 0
BITMAP
3E07F000
3C1C3C00
78781E00
70F00F00
61E00F00
C3C00F80
07C00F80
0F800F80
0F800F80
1F801F80
1F001F80
3F001F80
3F001F00
3F003F00
3E003E00
3E003E00
3E007C00
3E007800
1E00F000
1F01E000
0F03C000
078F0000
01FC0000
ENDCHAR

STARTCHAR onehalf
ENCODING 189
SWIDTH 875 0
DWIDTH 29 0
BBX 28 24 0 -1
BITMAP
00C000E0
0F8001C0
03800380
03800700
03000E00
07001C00
07003800
06007000
0E00E000
0E01C000
1C038000
7F0703C0
000E07E0
001C0C70
00380070
00700070
00E00060
01C000C0
03800180
07000300
0E000660
1C000FC0
38001FC0
F0000000
ENDCHAR

STARTCHAR afii9941
ENCODING 190
SWIDTH 803 0
DWIDTH 26 0
BBX 29 23 0 0
BITMAP
7CFFE1F8
783F0070
703F0060
E01F00C0
C01F0080
801F0180
000F8300
000F8600
000F8C00
0007C800
0007D800
0007F000
0003E000
0007C000
0007C000
0007C000
0007C000
000F8000
000F8000
000F8000
001F0000
001F8000
00FFE000
ENDCHAR

STARTCHAR afii9942
ENCODING 191
SWIDTH 795 0
DWIDTH 26 0
BBX 26 23 0 0
BITMAP
3E0FF800
783E1E00
78F80F00
71F00780
E3F00780
C3E007C0
07E007C0
07C007C0
0FC00FC0
0FC00FC0
0F800FC0
0F800F80
0F801F80
0F801F00
07803E00
03C07C00
11F0F100
1060C100
10210300
3FE1FE00
3FE3FE00
3FE3FE00
7FC3FE00
ENDCHAR

STARTCHAR afii9977
ENCODING 192
SWIDTH 271 0
DWIDTH 9 0
BBX 11 24 0 -1
BITMAP
0780
0700
0600
76E0
76E0
74E0
0000
0000
0700
7F00
1E00
1E00
1E00
3C00
3C00
3C00
7C00
7800
7800
7900
F200
FC00
F800
2000
ENDCHAR

STARTCHAR afii9793
ENCODING 193
SWIDTH 719 0
DWIDTH 24 0
BBX 21 24 0 0
BITMAP
000010
000010
000030
000070
0000F0
0000F0
0001F0
0003F0
0006F0
000DF0
0009F0
0011F0
0021F0
0061F0
00C1F0
00FFE0
0101E0
0201E0
0601E0
0C03E0
1803E0
1803E0
3803F0
FE0FF8
ENDCHAR

STARTCHAR afii9794
ENCODING 194
SWIDTH 667 0
DWIDTH 22 0
BBX 22 23 1 0
BITMAP
07FFE0
00F8F8
00F87C
00F87C
01F07C
01F07C
01F07C
01E0F8
03E1F0
03E3C0
03FE00
07FF80
07C3C0
07C1E0
0781F0
0F81F0
0F81F0
0F81F0
1F03F0
1F03E0
1F07C0
3E1F80
FFFE00
ENDCHAR

STARTCHAR afii9796
ENCODING 195
SWIDTH 667 0
DWIDTH 22 0
BBX 24 23 1 0
BITMAP
07FFFF
00F81E
00F806
00F806
01F002
01F002
01F000
01E000
03E000
03E000
03E000
07C000
07C000
07C000
078000
0F8000
0F8000
0F8000
1F0000
1F0000
1F0000
3F0000
FFC000
ENDCHAR

STARTCHAR afii9797
ENCODING 196
SWIDTH 667 0
DWIDTH 22 0
BBX 19 23 1 0
BITMAP
000020
000060
0000E0
0001E0
0001E0
0003E0
0007C0
000FC0
001BC0
0013C0
0037C0
0067C0
00C7C0
0187C0
0107C0
0307C0
0607C0
0C07C0
1807C0
1007C0
300780
600780
FFFF80
ENDCHAR

STARTCHAR afii9798
ENCODING 197
SWIDTH 667 0
DWIDTH 22 0
BBX 22 23 1 0
BITMAP
07FFFC
01F87C
01F01C
01F00C
01F008
03E000
03E000
03E040
03C080
07C380
07FF80
07C380
078100
0F8100
0F8100
0F8000
1F0000
1F0010
1F0060
1F00E0
3E03C0
3F0FC0
FFFFC0
ENDCHAR

STARTCHAR afii9801
ENCODING 198
SWIDTH 719 0
DWIDTH 24 0
BBX 25 23 1 0
BITMAP
01FFFF80
03E03F00
03007E00
0200FC00
0401F800
0003F800
0003F000
0007E000
000FC000
001F8000
003F0000
007E0000
00FE0000
00FC0000
01F80000
03F00000
07E00000
0FC00800
1FC01000
3F807000
3F00F000
7E07E000
FFFFE000
ENDCHAR

STARTCHAR afii9802
ENCODING 199
SWIDTH 823 0
DWIDTH 27 0
BBX 29 23 1 0
BITMAP
07FF3FF8
01F807E0
01F007C0
01F007C0
01F00F80
01F00F80
03E00F80
03E00F00
03E01F00
03C01F00
07C01F00
07FFFE00
07C03E00
0F803E00
0F803C00
0F807C00
1F007C00
1F007C00
1F00F800
1F00F800
3E00F800
3F01F800
FFCFFE00
ENDCHAR

STARTCHAR afii9803
ENCODING 200
SWIDTH 770 0
DWIDTH 25 0
BBX 23 23 3 0
BITMAP
001FC0
0078F0
01E078
03C07C
07803C
0F003E
1F003E
3F003E
3E413E
7E417E
7CFE7E
7CFE7E
FCFE7C
FCFCFC
F904F8
F904F8
F801F0
F801E0
7803C0
7C0780
3C0F00
1E1C00
07F000
ENDCHAR

STARTCHAR afii9804
ENCODING 201
SWIDTH 385 0
DWIDTH 13 0
BBX 16 23 0 0
BITMAP
07FF
00FC
00F8
00F8
01F0
01F0
01F0
03E0
03E0
03E0
03E0
07C0
07C0
07C0
0780
0F80
0F80
0F80
1F00
1F00
1F00
3F00
FFE0
ENDCHAR

STARTCHAR afii9805
ENCODING 202
SWIDTH 719 0
DWIDTH 24 0
BBX 26 23 0 0
BITMAP
03FF3FC0
00FC0F00
00FC1C00
00F81800
00F83000
00F86000
01F18000
01F30000
01F60000
01EF0000
03FF0000
03EF0000
03EF8000
07CF8000
07C78000
07C7C000
0787C000
0F83E000
0F83E000
0F83E000
1F03F000
1F83F000
FFE7FC00
ENDCHAR

STARTCHAR afii9806
ENCODING 203
SWIDTH 719 0
DWIDTH 24 0
BBX 20 23 1 0
BITMAP
000030
000070
000060
0000E0
0001E0
0003E0
0007E0
0005E0
000BE0
001BE0
0033E0
0063E0
00C3E0
0083E0
0103E0
0303E0
0603C0
0C03C0
0803C0
1007C0
3007C0
7007E0
FC1FF0
ENDCHAR

STARTCHAR afii9807
ENCODING 204
SWIDTH 990 0
DWIDTH 33 0
BBX 35 23 0 0
BITMAP
03FC000FE0
00FC001F80
007C003F00
00FC003F00
00BC005F00
00BE00FE00
01BE01BE00
013E013E00
013E023E00
013E067C00
031E0C7C00
021E087C00
021F18F800
061F30F800
041F20F800
041F40F800
040FC1F000
0C0F81F000
080F01F000
080E03E000
180E03E000
3C0C07E000
FE081FFC00
ENDCHAR

STARTCHAR afii9808
ENCODING 205
SWIDTH 771 0
DWIDTH 25 0
BBX 29 23 0 0
BITMAP
03F803F8
00FC00E0
00FC00C0
00FE0080
00BE0080
01BF0180
011F0100
011F8100
010F8100
030FC300
0207C200
0207E200
0603E600
0403E400
0401F400
0401F400
0C00FC00
0800F800
08007800
18007800
18003000
38003000
FE001000
ENDCHAR

STARTCHAR afii9809
ENCODING 206
SWIDTH 667 0
DWIDTH 22 0
BBX 24 23 1 0
BITMAP
03FFFF
03FFFE
03FFFE
07FFFE
040004
040004
080004
008020
008040
00FFC0
01FFC0
01FF80
01FF80
010180
020080
200010
200010
400010
600020
7FFFE0
FFFFE0
FFFFC0
FFFFC0
ENDCHAR

STARTCHAR afii9810
ENCODING 207
SWIDTH 771 0
DWIDTH 25 0
BBX 23 23 3 0
BITMAP
001FC0
0070F0
01E078
03C03C
07803C
0F003E
1F003E
3E003E
3E003E
7E007E
7C007E
FC007E
FC007C
FC00FC
F800F8
F800F8
F801F0
F801E0
7803C0
7C0780
3C0F00
1E3C00
07F000
ENDCHAR

STARTCHAR afii9811
ENCODING 208
SWIDTH 823 0
DWIDTH 27 0
BBX 29 23 1 0
BITMAP
07FFFFF8
00F807E0
00F807C0
01F007C0
01F00780
01F00F80
03E00F80
03E00F80
03E01F00
03C01F00
07C01F00
07C03E00
07C03E00
0F803E00
0F803E00
0F807C00
1F007C00
1F007C00
1F00F800
1F00F800
3E00F800
3F01F800
FFCFFE00
ENDCHAR

STARTCHAR afii9813
ENCODING 209
SWIDTH 667 0
DWIDTH 22 0
BBX 22 23 0 0
BITMAP
07FFC0
00F9F0
00F8F8
00F07C
01F07C
01F07C
01F07C
03E0FC
03E0F8
03E1F0
03C7E0
07FF80
07C000
07C000
0F8000
0F8000
0F8000
0F0000
1F0000
1F0000
1F0000
3F0000
FFE000
ENDCHAR

STARTCHAR afii9814
ENCODING 211
SWIDTH 719 0
DWIDTH 24 0
BBX 24 23 1 0
BITMAP
03FFFF
01E007
01F003
00F001
00F801
00F800
007C00
007C00
003E00
003E00
001C00
001800
003000
006000
00C000
018000
030010
060010
0C0070
1FFFE0
3FFFE0
7FFFE0
FFFFC0
ENDCHAR

STARTCHAR afii9816
ENCODING 212
SWIDTH 667 0
DWIDTH 22 0
BBX 20 23 4 0
BITMAP
1FFFF0
3FFFF0
3C7C70
30F860
20F820
40F820
00F000
01F000
01F000
01F000
03E000
03E000
03E000
07C000
07C000
07C000
07C000
0F8000
0F8000
0F8000
1F0000
1F8000
FFF000
ENDCHAR

STARTCHAR afii9817
ENCODING 213
SWIDTH 719 0
DWIDTH 24 0
BBX 21 23 5 0
BITMAP
FFE1F8
3F0070
1F0060
1F0040
1F00C0
0F0180
0F8300
0F8600
0F8400
07C800
07D800
07F000
03E000
03E000
07C000
07C000
07C000
0F8000
0F8000
0F8000
1F8000
1F8000
FFE000
ENDCHAR

STARTCHAR afii9818
ENCODING 214
SWIDTH 771 0
DWIDTH 25 0
BBX 24 23 1 0
BITMAP
003FF8
000FC0
000F80
000F80
00FFE0
07DF38
0F1F1C
3E1F1E
3E3E1E
7C3E1F
7C3E1F
F87C1F
F87C3F
F87C3E
F8FC3E
78F87C
38F8F8
1CFBE0
07FE00
01F000
01F000
03F000
1FFE00
ENDCHAR

STARTCHAR afii9819
ENCODING 215
SWIDTH 719 0
DWIDTH 24 0
BBX 26 23 0 0
BITMAP
07FE1FC0
01F80780
00F80600
00F80C00
007C1800
007C3000
007C6000
003EC000
003F8000
003F0000
001F0000
001F0000
001F0000
003F8000
006F8000
00C7C000
0187C000
0307C000
0603E000
0C03E000
1C03E000
3C03F000
FF0FF800
ENDCHAR

STARTCHAR afii9820
ENCODING 216
SWIDTH 823 0
DWIDTH 27 0
BBX 26 23 5 0
BITMAP
F0FFC7C0
783F0F00
7C3E1F00
7C3E3E00
7C7C3E00
7C7C3E00
F87C7E00
F87C7C00
F8F87C00
F8F8F800
78F8F800
39F1E000
1DF7C000
03FE0000
01F00000
03E00000
03E00000
03E00000
07C00000
07C00000
07C00000
0FC00000
7FF00000
ENDCHAR

STARTCHAR afii9821
ENCODING 217
SWIDTH 771 0
DWIDTH 25 0
BBX 25 23 0 0
BITMAP
001FF000
007C3C00
01F01E00
03E00F00
07E00F00
07C00F80
0FC00F80
0F800F80
1F801F80
1F801F80
1F001F80
1F001F00
1F003F00
1F003E00
0F007C00
0780F800
23E1E200
20C18200
20420600
7FC3FC00
7FC7FC00
7FC7FC00
FF87FC00
ENDCHAR

STARTCHAR afii9943
ENCODING 218
SWIDTH 385 0
DWIDTH 13 0
BBX 17 29 1 0
BITMAP
070700
0F8F80
0F8F80
0F8F80
060300
000000
0FFE00
01F800
01F000
01F000
01E000
03E000
03E000
03E000
07C000
07C000
07C000
078000
0F8000
0F8000
0F8000
1F0000
1F0000
1F0000
1E0000
3E0000
3E0000
7E0000
FFC000
ENDCHAR

STARTCHAR afii9944
ENCODING 219
SWIDTH 719 0
DWIDTH 24 0
BBX 22 29 4 0
BITMAP
01C1C0
03E3E0
03E3E0
03E3E0
0180C0
000000
FFE1FC
1F8078
1F8070
0F8060
0F80C0
0F8080
078100
07C300
07C600
03CC00
03E800
03F000
03F000
03E000
03E000
03E000
07C000
07C000
07C000
07C000
0F8000
1FC000
7FF000
ENDCHAR

STARTCHAR afii9968
ENCODING 220
SWIDTH 500 0
DWIDTH 17 0
BBX 15 23 1 0
BITMAP
007C
0078
0070
00E0
00C0
0080
0000
0000
07BE
1E5C
3C7C
3C7C
7878
7878
F878
F0F0
F0F0
F0F0
E1E0
E1E2
61D6
239C
1E1C
ENDCHAR

STARTCHAR afii9969
ENCODING 221
SWIDTH 385 0
DWIDTH 13 0
BBX 13 23 1 0
BITMAP
00F8
01E0
01C0
0180
0300
0200
0000
0000
07C0
1C70
3C70
3870
1800
1000
0F80
3800
7800
F000
F0E0
F1E0
F1E0
71C0
1F80
ENDCHAR

STARTCHAR afii9970
ENCODING 222
SWIDTH 500 0
DWIDTH 17 0
BBX 16 30 0 -7
BITMAP
003E
003C
0038
0070
0060
0040
0000
0000
0E0E
3F3F
2F6F
4F5F
1E9E
1F1E
1E1E
3E3E
3C3C
3C3C
3C7C
7878
7878
7878
F8F0
00F0
00F0
01F0
01E0
01E0
01E0
01E0
ENDCHAR

STARTCHAR afii9971
ENCODING 223
SWIDTH 271 0
DWIDTH 9 0
BBX 11 23 0 0
BITMAP
03E0
03C0
0380
0700
0600
0C00
0000
0000
0700
7F00
1E00
1E00
3E00
3C00
3C00
7C00
7800
7800
7800
F300
F400
FC00
7000
ENDCHAR

STARTCHAR afii9978
ENCODING 224
SWIDTH 438 0
DWIDTH 14 0
BBX 12 23 1 0
BITMAP
01C0
01C0
0180
39B0
3970
3970
0000
3100
78C0
7C60
7C30
7C30
7C30
7830
7830
F870
F070
F060
F0E0
E0C0
E180
6300
3E00
ENDCHAR

STARTCHAR afii9825
ENCODING 225
SWIDTH 500 0
DWIDTH 17 0
BBX 15 15 1 0
BITMAP
07BE
1E5C
3C7C
3C7C
7878
7878
F878
F0F0
F0F0
F0F0
E1E0
E1E2
61D6
239C
1E1C
ENDCHAR

STARTCHAR afii9826
ENCODING 226
SWIDTH 500 0
DWIDTH 17 0
BBX 19 30 -1 -6
BITMAP
001F00
0039C0
00F1E0
00F1E0
01E1E0
01E1E0
03E3C0
03E3C0
03C380
03DF00
07DE00
078700
078700
078780
0F8780
0F0780
0F0780
1F0F80
1F0F00
1E0F00
1E1E00
3E3E00
3DF800
3CF000
3C0000
7C0000
780000
780000
F80000
F00000
ENDCHAR

STARTCHAR afii9828
ENCODING 227
SWIDTH 438 0
DWIDTH 14 0
BBX 13 22 1 -7
BITMAP
3870
7C78
7C78
4C38
4430
0430
0430
0420
0460
04C0
0580
0500
0600
0400
0C00
1C00
3C00
7C00
7800
F800
7800
7000
ENDCHAR

STARTCHAR afii9829
ENCODING 228
SWIDTH 500 0
DWIDTH 17 0
BBX 16 24 1 0
BITMAP
00FC
019E
010F
0107
0180
01C0
00E0
00F0
0078
00FC
03BE
0E1E
1E1E
3C1E
7C1E
783E
F83E
F03C
F07C
F078
F0F0
70E0
79C0
1F00
ENDCHAR

STARTCHAR afii9830
ENCODING 229
SWIDTH 385 0
DWIDTH 13 0
BBX 12 15 1 0
BITMAP
07C0
1C70
3C70
3870
1800
1000
0F80
3800
7800
F000
F0E0
F1E0
F1E0
71C0
1F80
ENDCHAR

STARTCHAR afii9833
ENCODING 230
SWIDTH 438 0
DWIDTH 14 0
BBX 15 30 1 -5
BITMAP
0080
0300
060E
063E
077C
03F8
0180
0100
0200
0600
0C00
1800
1800
3000
7000
7000
6000
E000
E000
E000
F000
FFE0
FFF0
7FF0
3FF0
0030
0010
07A0
0FE0
0780
ENDCHAR

STARTCHAR afii9834
ENCODING 231
SWIDTH 500 0
DWIDTH 17 0
BBX 16 22 0 -7
BITMAP
0E0E
3F3F
2F6F
4F5F
1E9E
1F1E
1E1E
3E3E
3C3C
3C3C
3C7C
7878
7878
7878
F8F0
00F0
00F0
01F0
01E0
01E0
01E0
01E0
ENDCHAR

STARTCHAR afii9835
ENCODING 232
SWIDTH 500 0
DWIDTH 17 0
BBX 16 24 1 0
BITMAP
007C
018E
0387
0707
0E07
0E0F
1E0F
3C0F
3C0F
3C1F
781F
7FFE
781E
F83E
F03C
F03C
F03C
F078
F070
E0F0
E0E0
71C0
7180
1E00
ENDCHAR

STARTCHAR afii9836
ENCODING 233
SWIDTH 271 0
DWIDTH 9 0
BBX 8 15 1 0
BITMAP
07
7F
1E
1E
3E
3C
3C
7C
78
78
78
F3
F6
FC
70
ENDCHAR

STARTCHAR afii9837
ENCODING 234
SWIDTH 552 0
DWIDTH 18 0
BBX 18 15 0 0
BITMAP
0381C0
3F83C0
0F07C0
0F08C0
0F1000
1E3000
1EF000
1EF000
3EF800
3C7800
3C7800
7C7880
783C80
783F00
F81C00
ENDCHAR

STARTCHAR afii9838
ENCODING 235
SWIDTH 500 0
DWIDTH 17 0
BBX 15 24 1 0
BITMAP
01C0
03E0
03E0
0230
0420
0020
0020
0020
0020
0020
0060
00E0
00E0
01E0
03E0
07E0
07A0
0FA0
1F20
1E20
3E32
7C3E
F83C
F81C
ENDCHAR

STARTCHAR afii9839
ENCODING 236
SWIDTH 552 0
DWIDTH 18 0
BBX 19 21 -2 -6
BITMAP
01F1E0
01E1E0
01E1E0
03C3C0
03C3C0
03C3C0
07C780
078780
078780
0F8F80
0F0F00
0F1720
1FEF20
1BCFC0
1B8780
380000
300000
700000
700000
F00000
700000
ENDCHAR

STARTCHAR afii9840
ENCODING 237
SWIDTH 438 0
DWIDTH 14 0
BBX 13 15 1 0
BITMAP
3C30
FC78
3C78
3E38
1E30
1E30
1E20
1E20
1E40
1E40
1E80
1F00
1E00
1E00
1C00
ENDCHAR

STARTCHAR afii9841
ENCODING 238
SWIDTH 500 0
DWIDTH 17 0
BBX 16 29 1 -5
BITMAP
0100
070F
061E
027E
00F8
0180
0100
0200
023C
01FE
03FC
0C78
1800
3000
6000
6000
6000
E000
E000
F000
FFE0
7FF0
7FF8
1FF8
0008
0008
0310
07F0
03C0
ENDCHAR

STARTCHAR afii9842
ENCODING 239
SWIDTH 500 0
DWIDTH 17 0
BBX 15 15 1 0
BITMAP
01F8
071C
0E1E
1E1E
3C1E
7C1E
783E
783C
F83C
F078
F078
F070
F0E0
71C0
1E00
ENDCHAR

STARTCHAR afii9843
ENCODING 240
SWIDTH 552 0
DWIDTH 18 0
BBX 18 15 0 0
BITMAP
0FFFC0
3FFF80
7FFF80
7FFF80
471C00
871C00
0E3800
0E3800
0E3800
1E7000
1C7000
3C7080
787B00
787F00
703C00
ENDCHAR

STARTCHAR afii9845
ENCODING 241
SWIDTH 500 0
DWIDTH 17 0
BBX 18 21 -2 -6
BITMAP
003F00
00E380
01E3C0
03C3C0
03C3C0
03C3C0
0787C0
078780
078780
0F8780
0F0F00
0F0E00
1F1C00
1E3800
1EE000
3E0000
3C0000
3C0000
7C0000
780000
F80000
ENDCHAR

STARTCHAR afii9847
ENCODING 242
SWIDTH 438 0
DWIDTH 14 0
BBX 14 20 1 -5
BITMAP
03F0
0FF8
187C
3038
6000
4000
C000
8000
8000
C000
C000
FF80
FFE0
7FE0
3FE0
0060
0020
0C40
1FC0
0F00
ENDCHAR

STARTCHAR afii9846
ENCODING 243
SWIDTH 552 0
DWIDTH 18 0
BBX 17 15 1 0
BITMAP
07FF80
0FFF00
1FDF00
3F2000
7C3000
783000
F03800
F07800
F07800
E07800
E0F800
E0F000
61E000
33C000
1F0000
ENDCHAR

STARTCHAR afii9848
ENCODING 244
SWIDTH 438 0
DWIDTH 14 0
BBX 13 15 1 0
BITMAP
1FF8
7FF8
FFF0
FFF0
8700
0700
0E00
0E00
0E00
1C00
1C00
1C60
1FC0
1F80
0700
ENDCHAR

STARTCHAR afii9849
ENCODING 245
SWIDTH 438 0
DWIDTH 14 0
BBX 13 16 1 0
BITMAP
3080
7860
7C30
7C18
7C18
7C18
7818
7838
F838
F038
F070
F070
E0E0
E1C0
7380
3E00
ENDCHAR

STARTCHAR afii9850
ENCODING 246
SWIDTH 552 0
DWIDTH 18 0
BBX 17 22 1 -7
BITMAP
071E00
1E7F00
3C6780
3CE780
78E780
78C780
F1C780
F1CF00
F18F00
F38F00
F39E00
E31C00
E73800
777000
3BC000
0E0000
0E0000
0C0000
0C0000
1C0000
1C0000
180000
ENDCHAR

STARTCHAR afii9851
ENCODING 247
SWIDTH 500 0
DWIDTH 17 0
BBX 19 22 -2 -7
BITMAP
0383E0
07C3C0
0CC7C0
084F80
004F00
005F00
005E00
007C00
007C00
00F800
00F000
01F000
03E000
03E000
07E000
0FA000
0F2000
1F3000
3E3100
3C1F00
7C1E00
F80C00
ENDCHAR

STARTCHAR afii9852
ENCODING 248
SWIDTH 719 0
DWIDTH 24 0
BBX 21 22 2 -7
BITMAP
703838
3870F0
3C70F0
3C71E0
7CE3E0
7CE3E0
78E3C0
79C7C0
F9C780
F9CF80
F1CF00
738F00
739E00
33BC00
1FF000
070000
070000
0E0000
0E0000
0E0000
1C0000
1C0000
ENDCHAR

STARTCHAR afii9853
ENCODING 249
SWIDTH 719 0
DWIDTH 24 0
BBX 22 15 1 0
BITMAP
07C1E0
0E1830
1E1C38
3C3C3C
783C3C
78383C
78383C
F0303C
F03078
F02078
F020F8
F060F0
7041E0
3993C0
1E0F80
ENDCHAR

STARTCHAR afii9975
ENCODING 250
SWIDTH 271 0
DWIDTH 9 0
BBX 11 22 1 0
BITMAP
79E0
79E0
79E0
79E0
0000
0000
0000
0700
7E00
1E00
1E00
3C00
3C00
3C00
7800
7800
7800
7000
F200
F400
F800
7000
ENDCHAR

STARTCHAR afii9976
ENCODING 251
SWIDTH 438 0
DWIDTH 14 0
BBX 13 22 1 0
BITMAP
1E78
1E78
1E78
0E38
0000
0000
3080
7860
7C30
7C18
7C18
7C18
7818
7838
F838
F038
F070
F070
E0E0
E1C0
7380
3E00
ENDCHAR

STARTCHAR afii9972
ENCODING 252
SWIDTH 500 0
DWIDTH 17 0
BBX 15 23 1 0
BITMAP
003E
0078
0070
0060
00E0
00C0
0000
0000
01F8
071C
0E1E
1E1E
3C1E
7C1E
783E
783C
F83C
F078
F078
F070
F0E0
71C0
1E00
ENDCHAR

STARTCHAR afii9973
ENCODING 253
SWIDTH 438 0
DWIDTH 14 0
BBX 13 23 1 0
BITMAP
00F8
00E0
01E0
01C0
0180
0300
0000
3080
7860
7C30
7C18
7C18
7C18
7818
7838
F838
F038
F070
F070
E0E0
E1C0
7380
3E00
ENDCHAR

STARTCHAR afii9974
ENCODING 254
SWIDTH 719 0
DWIDTH 24 0
BBX 22 23 1 0
BITMAP
0007C0
000780
000F00
000E00
000C00
001800
000000
000000
07C1E0
0E1830
1E1C38
3C3C3C
783C3C
78383C
78383C
F0303C
F03078
F02078
F020F8
F060F0
7041E0
3993C0
1E0F80
ENDCHAR
ENDFONT
